<svg width="102" height="29" viewBox="0 0 102 29" fill="none" xmlns="http://www.w3.org/2000/svg">
<path d="M7.7636 15.1952C6.80657 15.2083 5.89511 15.0422 5.02923 14.6972C4.16334 14.3456 3.41464 13.8573 2.78313 13.2323C2.15162 12.6073 1.65358 11.8424 1.28899 10.9374C0.924409 10.026 0.748628 9.04614 0.761649 7.99797C0.742118 7.0214 0.927665 6.0839 1.31829 5.18547C1.71543 4.28703 2.24928 3.51554 2.91985 2.87101C3.59043 2.22648 4.3847 1.71867 5.30266 1.34757C6.22063 0.969971 7.17441 0.787679 8.16399 0.8007C9.99342 0.8007 11.4876 1.24015 12.6464 2.11906C13.8053 2.99146 14.5768 4.17961 14.9609 5.68351L11.8847 6.66007C11.6829 5.74211 11.2499 5.01945 10.5859 4.49211C9.92832 3.96476 9.12102 3.70109 8.16399 3.70109C6.96608 3.70109 5.96673 4.10799 5.16595 4.92179C4.36516 5.72908 3.96477 6.75448 3.96477 7.99797C3.96477 9.32609 4.32936 10.3743 5.05852 11.1425C5.7942 11.9172 6.79355 12.3046 8.05657 12.3046C8.9485 12.3046 9.68418 12.08 10.2636 11.6308C10.8495 11.175 11.2011 10.6965 11.3183 10.1952H6.03509V7.59757H15.4589V14.9999H12.6562V12.1777C12.259 13.1282 11.6406 13.8704 10.8007 14.4042C9.96087 14.9316 8.9485 15.1952 7.7636 15.1952Z" fill="#24282B"/>
<path d="M49.6679 14.9999H46.0644C45.8821 14.5963 45.7617 14.1959 45.7031 13.7987C45.651 13.4277 45.6249 12.7603 45.6249 11.7968C45.6249 11.1132 45.4492 10.5924 45.0976 10.2343C44.746 9.87622 44.2415 9.69718 43.5839 9.69718H40.9863V14.9999H37.7831V0.996012H44.7851C46.2304 0.996012 47.373 1.38013 48.2128 2.14836C49.0592 2.91007 49.4824 3.89315 49.4824 5.09757C49.4824 5.8658 49.2284 6.60799 48.7206 7.32414C48.2389 8.00122 47.5943 8.49276 46.787 8.79875C47.3925 8.96151 47.8906 9.30005 48.2812 9.81437C48.6718 10.3287 48.8867 10.957 48.9257 11.6991C48.9648 12.4218 49.0396 13.0175 49.1503 13.4862C49.261 13.9485 49.4335 14.3456 49.6679 14.6777V14.9999ZM40.9863 6.79679H44.6874C45.2408 6.79679 45.6607 6.66007 45.9472 6.38664C46.2402 6.1132 46.3867 5.75187 46.3867 5.30265C46.3867 4.85994 46.2434 4.51489 45.957 4.2675C45.6705 4.0201 45.2473 3.8964 44.6874 3.8964H40.9863V6.79679Z" fill="#24282B"/>
<path d="M70.6835 14.9999L76.1913 0.996012H80.7909L86.289 14.9999H82.7929L81.7089 12.0995H75.2636L74.1894 14.9999H70.6835ZM76.3476 9.19914H80.6249L78.4863 3.47648L76.3476 9.19914Z" fill="#24282B"/>
<path d="M21.2792 14.996H31.9628V17.8964H24.4824V20.6991H31.3574V23.5995H24.4824V28.9999H21.2792V14.996Z" fill="#24282B"/>
<path d="M59.1113 28.9999V14.996H62.3144V28.9999H59.1113Z" fill="#24282B"/>
<path d="M101.836 14.996V17.8964H97.0312V28.9999H93.8378V17.8964H89.0331V14.996H101.836Z" fill="#24282B"/>
</svg>
