<svg width="32" height="32" viewBox="0 0 32 32" fill="none" xmlns="http://www.w3.org/2000/svg">
<path d="M32 16C32 24.8366 24.8366 32 16 32C7.16344 32 0 24.8366 0 16C0 7.16344 7.16344 0 16 0C24.8366 0 32 7.16344 32 16ZM3.05899 16C3.05899 23.1471 8.85288 28.941 16 28.941C23.1471 28.941 28.941 23.1471 28.941 16C28.941 8.85288 23.1471 3.05899 16 3.05899C8.85288 3.05899 3.05899 8.85288 3.05899 16Z" fill="#E2574C"/>
<rect x="14" y="7" width="4" height="12" rx="2" fill="#E2574C"/>
<circle cx="16" cy="23" r="2" fill="#E2574C"/>
</svg>
