<svg width="34" height="35" viewBox="0 0 34 35" fill="none" xmlns="http://www.w3.org/2000/svg">
<path d="M34.375 4.375V30.625C34.375 32.6961 32.6961 34.375 30.625 34.375H23.5938C23.076 34.375 22.6562 33.9553 22.6562 33.4375V22.1875H27.0438C27.4893 22.1876 27.8734 21.8741 27.9625 21.4375L28.6375 18.0625C28.6654 17.9262 28.6312 17.7845 28.5443 17.6758C28.4573 17.5672 28.3266 17.5027 28.1875 17.5H22.6562V11.4062C22.6562 11.1474 22.8661 10.9375 23.125 10.9375H27.8125C28.3303 10.9375 28.75 10.5178 28.75 10V7.1875C28.75 6.66973 28.3303 6.25 27.8125 6.25H23.125C20.0184 6.25 17.5 8.7684 17.5 11.875V17.5H15.1938C14.676 17.5 14.2563 17.9197 14.2563 18.4375V21.25C14.2563 21.7678 14.676 22.1875 15.1938 22.1875H17.5V33.4375C17.5 33.9553 17.0803 34.375 16.5625 34.375H4.375C2.30393 34.375 0.625 32.6961 0.625 30.625V4.375C0.625 2.30393 2.30393 0.625 4.375 0.625H30.625C32.6961 0.625 34.375 2.30393 34.375 4.375Z" fill="#E2E001"/>
</svg>
