<svg width="35" height="35" viewBox="0 0 35 35" fill="none" xmlns="http://www.w3.org/2000/svg">
<path d="M25 0.625H10C4.82233 0.625 0.625 4.82233 0.625 10V25C0.625 30.1777 4.82233 34.375 10 34.375H25C30.1777 34.375 34.375 30.1777 34.375 25V10C34.375 4.82233 30.1777 0.625 25 0.625ZM31.0938 25C31.0835 28.3612 28.3612 31.0835 25 31.0938H10C6.63879 31.0835 3.91654 28.3612 3.90625 25V10C3.91654 6.63879 6.63879 3.91654 10 3.90625H25C28.3612 3.91654 31.0835 6.63879 31.0938 10V25ZM28.2812 8.59375C28.2812 9.62928 27.4418 10.4688 26.4062 10.4688C25.3707 10.4688 24.5312 9.62928 24.5312 8.59375C24.5312 7.55822 25.3707 6.71875 26.4062 6.71875C27.4418 6.71875 28.2812 7.55822 28.2812 8.59375ZM17.5 9.0625C12.8401 9.0625 9.0625 12.8401 9.0625 17.5C9.0625 22.1599 12.8401 25.9375 17.5 25.9375C22.1599 25.9375 25.9375 22.1599 25.9375 17.5C25.9425 15.2607 25.0551 13.1117 23.4717 11.5283C21.8883 9.94485 19.7393 9.05751 17.5 9.0625ZM17.5 22.6562C14.6523 22.6562 12.3438 20.3477 12.3438 17.5C12.3438 14.6523 14.6523 12.3438 17.5 12.3438C20.3477 12.3438 22.6562 14.6523 22.6562 17.5C22.6562 20.3477 20.3477 22.6562 17.5 22.6562Z" fill="#E2E001"/>
</svg>
