<svg width="52" height="22" viewBox="0 0 52 22" xmlns="http://www.w3.org/2000/svg">
    <path
        d="M49.92 0H2.08C0.931248 0 0 0.255837 0 0.571429V1.42857C0 1.74416 0.931248 2 2.08 2H49.92C51.0688 2 52 1.74416 52 1.42857V0.571429C52 0.255837 51.0688 0 49.92 0Z"
        fill="#24282B" />
    <path
        d="M49.92 10H2.08C0.931248 10 0 10.2558 0 10.5714V11.4286C0 11.7442 0.931248 12 2.08 12H49.92C51.0688 12 52 11.7442 52 11.4286V10.5714C52 10.2558 51.0688 10 49.92 10Z"
        fill="#24282B" />
    <path
        d="M49.92 20H2.08C0.931248 20 0 20.2558 0 20.5714V21.4286C0 21.7442 0.931248 22 2.08 22H49.92C51.0688 22 52 21.7442 52 21.4286V20.5714C52 20.2558 51.0688 20 49.92 20Z"
        fill="#24282B" />
</svg>