<svg width="0" height="0" class="hidden">
  <symbol xmlns="http://www.w3.org/2000/svg" fill="none" viewBox="0 0 175 185" id="saturday">
    <path   d="M120.674 16.332c22.649 12.267 43.486 29.52 50.029 55.885 6.938 27.954.739 58.438-16.062 80.692-16.385 21.703-42.037 30.63-67.9 30.591-25.957-.04-51.837-8.852-68.064-30.79C2.133 130.345-1.874 99.99 4.146 71.672c6.008-28.267 21.646-53.818 45.521-65.15 22.783-10.815 48.12-2.586 71.007 9.81Z"></path>
  </symbol>
  <symbol xmlns="http://www.w3.org/2000/svg" fill="none" viewBox="0 0 175 185" id="friday">
    <path   d="M107.016 2.514c25.366 4.863 45.843 25.298 57.563 50.904 11.258 24.595 11.98 53.473 1.484 78.447-10.1 24.031-30.797 39.517-54.118 46.901-23.761 7.524-49.132 6.846-69.723-7.624-22.417-15.753-39.764-40.969-40.687-69.954-.912-28.648 16.036-53.18 36.253-72.064 19.816-18.51 44.124-31.423 69.228-26.61Z"></path>
  </symbol>
  <symbol xmlns="http://www.w3.org/2000/svg" fill="none" viewBox="0 0 175 185" id="thursday">
    <path   d="M141.276 14.605c20.61 16.281 31.24 43.305 32.153 71.268.941 28.787-7.453 57.537-27.358 76.065-20.403 18.992-48.41 25.745-74.547 19.034-25.328-6.503-44.635-27.362-56.697-52.885C2.531 102.068-4.14 71.554 7.677 45.858c11.455-24.903 37.901-34.67 63.64-40.695 24.476-5.728 50.14-6.215 69.959 9.442Z"></path>
  </symbol>
  <symbol xmlns="http://www.w3.org/2000/svg" fill="none" viewBox="0 0 175 185" id="wednesday">
    <path   d="M118.337 6.508c25.2 10.09 42.405 34.002 50.388 61.2 7.981 27.19 6.578 57.074-8.935 80.138-15.301 22.748-41.675 33.027-68.608 35.191-27.177 2.183-55.626-2.958-73.48-23.725C.109 138.848-.812 109.143 3.999 81.52c4.585-26.331 17.009-50.314 38.54-64.403C65.365 2.18 93.414-3.47 118.337 6.508Z"></path>
  </symbol>
  <symbol xmlns="http://www.w3.org/2000/svg" fill="none" viewBox="0 0 175 185" id="tuesday">
    <path   d="M117.094 4.05c25.609 8.317 46.6 29.824 54.044 56.956 7.194 26.217-3.009 53.104-17.699 76.193-14.681 23.076-34.332 43.458-59.954 46.012-25.923 2.585-50.11-12.508-67.902-33.199-17.208-20.013-27.527-46.357-23.029-72.7 4.3-25.18 23.863-42.694 45.104-56.268C69.385 7.16 93.484-3.616 117.095 4.051Z"></path>
  </symbol>
  <symbol xmlns="http://www.w3.org/2000/svg" fill="none" viewBox="0 0 175 186" id="monday">
    <path   d="M125.664 8.14c25.21 10.928 40.726 36.058 46.359 62.905 5.17 24.641-3.759 48.94-18.666 69.808-15.548 21.764-35.735 41.235-62.09 43.323-27.708 2.195-54.67-11.208-72.244-32.572C2.18 131.128-1.594 103.736 3.77 77.675c5.254-25.528 20.2-47.855 43.045-60.869C71.055 3 100.355-2.83 125.664 8.14Z"></path>
  </symbol>
</svg>