<svg xmlns="http://www.w3.org/2000/svg" aria-hidden="true" style="position:absolute;width:0;height:0;overflow:hidden">
  <defs>
    <symbol id="icon-3ellipse" viewBox="0 0 31 32">
      <path fill="#c7c9c6" d="M14.885 0c9.006 0 20.774 3.854 13.199 16.566C22.195 31.682 23.891 32 14.885 32H0V0h14.885z" style="fill:var(--color1, #c7c9c6)"/>
    </symbol>
    <symbol id="icon-4ellipse" viewBox="0 0 31 32">
      <path fill="#c7c9c6" d="M15.089 0c9.067 0 9.36 6.846 13.317 16.8C35.225 29.214 24.072 32 15.005 32H0V0h15.089z" style="fill:var(--color1, #c7c9c6)"/>
    </symbol>
    <symbol id="icon-5ellipse" viewBox="0 0 31 32">
      <path fill="#c7c9c6" d="M15.643 0c9.464 0 17.807 3.843 13.871 16.566C23.326 31.682 25.107 32 15.643 32H0V0h15.643z" style="fill:var(--color1, #c7c9c6)"/>
    </symbol>
    <symbol id="icon-1ellipse" viewBox="0 0 31 32">
      <path fill="#c7c9c6" d="M17.05 0c10.315 0 13.64 14.777 13.64 16.784C30.69 20.235 27.365 32 17.05 32H0V0h17.05z" style="fill:var(--color1, #c7c9c6)"/>
    </symbol>
    <symbol id="icon-6ellipse" viewBox="0 0 31 32">
      <path fill="#c7c9c6" d="M15.28 0c9.042 0 9.177 6.579 13.124 16.506C35.204 28.886 24.154 32 15.113 32H.001V0h15.28z" style="fill:var(--color1, #c7c9c6)"/>
    </symbol>
    <symbol id="icon-2ellipse" viewBox="0 0 31 32">
      <path fill="#c7c9c6" d="M16.386 0c9.696 0 9.174.818 13.406 10.745C32.822 19.921 25.902 32 16.206 32H0V0h16.386z" style="fill:var(--color1, #c7c9c6)"/>
    </symbol>
  </defs>
</svg>
