<svg xmlns="http://www.w3.org/2000/svg" aria-hidden="true" style="position:absolute;width:0;height:0;overflow:hidden">
  <defs>
    <symbol id="icon-3ellipse" viewBox="0 0 30 32">
      <path fill="#c7c9c6" d="M14.77 0c8.936 0 20.613 3.854 13.097 16.566C22.024 31.682 23.706 32 14.77 32H0V0h14.77z" style="fill:var(--color1, #c7c9c6)"/>
    </symbol>
    <symbol id="icon-4ellipse" viewBox="0 0 30 32">
      <path fill="#c7c9c6" d="M14.972 0c8.996 0 9.287 6.846 13.214 16.8C34.952 29.214 23.885 32 14.889 32H.001V0h14.972z" style="fill:var(--color1, #c7c9c6)"/>
    </symbol>
    <symbol id="icon-5ellipse" viewBox="0 0 30 32">
      <path fill="#c7c9c6" d="M15.601 0c9.439 0 17.76 3.843 13.835 16.566C23.264 31.682 25.041 32 15.601 32H0V0h15.601z" style="fill:var(--color1, #c7c9c6)"/>
    </symbol>
    <symbol id="icon-1ellipse" viewBox="0 0 30 32">
      <path fill="#c7c9c6" d="M16.906 0c10.229 0 13.526 14.777 13.526 16.784C30.432 20.235 27.135 32 16.906 32H0V0h16.906z" style="fill:var(--color1, #c7c9c6)"/>
    </symbol>
    <symbol id="icon-6ellipse" viewBox="0 0 30 32">
      <path fill="#c7c9c6" d="M15.161 0c8.971 0 9.106 6.579 13.021 16.506C34.93 28.886 23.965 32 14.994 32H0V0h15.161z" style="fill:var(--color1, #c7c9c6)"/>
    </symbol>
    <symbol id="icon-2ellipse" viewBox="0 0 30 32">
      <path fill="#c7c9c6" d="M16.259 0c9.621 0 9.103.818 13.302 10.745C32.567 19.921 25.702 32 16.081 32H.001V0H16.26z" style="fill:var(--color1, #c7c9c6)"/>
    </symbol>
  </defs>
</svg>
