<svg xmlns="http://www.w3.org/2000/svg" aria-hidden="true" style="position:absolute;width:0;height:0;overflow:hidden">
  <defs>

    <symbol id="icon-burger" viewBox="0 0 52 22">
      <path
        d="M49.92 0H2.08C0.931248 0 0 0.255837 0 0.571429V1.42857C0 1.74416 0.931248 2 2.08 2H49.92C51.0688 2 52 1.74416 52 1.42857V0.571429C52 0.255837 51.0688 0 49.92 0Z"
        fill="#24282B" />
      <path
        d="M49.92 10H2.08C0.931248 10 0 10.2558 0 10.5714V11.4286C0 11.7442 0.931248 12 2.08 12H49.92C51.0688 12 52 11.7442 52 11.4286V10.5714C52 10.2558 51.0688 10 49.92 10Z"
        fill="#24282B" />
      <path
        d="M49.92 20H2.08C0.931248 20 0 20.2558 0 20.5714V21.4286C0 21.7442 0.931248 22 2.08 22H49.92C51.0688 22 52 21.7442 52 21.4286V20.5714C52 20.2558 51.0688 20 49.92 20Z"
        fill="#24282B" />
    </symbol>

    <symbol id="icon-fb" viewBox="0 0 32 32">
      <path
        d="M31.789 3.719V28.28a3.509 3.509 0 0 1-3.509 3.509h-6.579a.877.877 0 0 1-.877-.877V20.386h4.105a.878.878 0 0 0 .86-.702l.632-3.158a.44.44 0 0 0-.421-.527h-5.175v-5.702c0-.242.196-.439.439-.439h4.386a.877.877 0 0 0 .877-.877V6.349a.877.877 0 0 0-.877-.877h-4.386a5.263 5.263 0 0 0-5.263 5.263v5.263h-2.158a.877.877 0 0 0-.877.877v2.632c0 .485.393.877.877.877h2.158V30.91a.877.877 0 0 1-.877.877H3.72a3.509 3.509 0 0 1-3.509-3.509V3.717A3.509 3.509 0 0 1 3.72.208h24.561a3.509 3.509 0 0 1 3.509 3.509z" />
    </symbol>
    <symbol id="icon-instagram" viewBox="0 0 32 32">
      <path
        d="M23.018.211H8.983A8.772 8.772 0 0 0 .211 8.983v14.035a8.772 8.772 0 0 0 8.772 8.772h14.035a8.772 8.772 0 0 0 8.772-8.772V8.983A8.772 8.772 0 0 0 23.018.211zm5.701 22.807a5.72 5.72 0 0 1-5.702 5.702H8.982a5.72 5.72 0 0 1-5.702-5.702V8.983a5.72 5.72 0 0 1 5.702-5.702h14.035a5.72 5.72 0 0 1 5.702 5.702v14.035zM26.088 7.667a1.754 1.754 0 1 1-3.509 0 1.754 1.754 0 0 1 3.509 0zM16 8.105A7.895 7.895 0 1 0 23.895 16 7.88 7.88 0 0 0 16 8.105zm0 12.72a4.825 4.825 0 1 1 0-9.65 4.825 4.825 0 0 1 0 9.65z" />
    </symbol>
    <symbol id="icon-close" viewBox="0 0 32 32">
      <path
        d="M1.31 3.46l27.23 27.23c0.791 0.791 2.075 0.791 2.866 0s0.792-2.075 0-2.866l-27.23-27.23c-0.792-0.791-2.075-0.791-2.866 0s-0.792 2.075 0 2.866z">
      </path>
      <path
        d="M3.46 31.407l27.23-27.23c0.792-0.792 0.792-2.075 0-2.866s-2.075-0.791-2.866 0l-27.23 27.23c-0.792 0.792-0.792 2.075 0 2.866s2.075 0.791 2.866 0z">
      </path>
    </symbol>

<path d="M1.31 3.46l27.23 27.23c0.791 0.791 2.075 0.791 2.866 0s0.792-2.075 0-2.866l-27.23-27.23c-0.792-0.791-2.075-0.791-2.866 0s-0.792 2.075 0 2.866z"></path>
<path d="M3.46 31.407l27.23-27.23c0.792-0.792 0.792-2.075 0-2.866s-2.075-0.791-2.866 0l-27.23 27.23c-0.792 0.792-0.792 2.075 0 2.866s2.075 0.791 2.866 0z"></path>
</symbol>
<symbol id="icon-error" viewBox="0 0 32 32">
<path d="M32 16c0 8.837-7.163 16-16 16s-16-7.163-16-16c0-8.837 7.163-16 16-16s16 7.163 16 16zM3.059 16c0 7.147 5.794 12.941 12.941 12.941s12.941-5.794 12.941-12.941c0-7.147-5.794-12.941-12.941-12.941s-12.941 5.794-12.941 12.941z"></path>
<path d="M16 7c1.105 0 2 0.895 2 2v8c0 1.105-0.895 2-2 2s-2-0.895-2-2v-8c0-1.105 0.895-2 2-2z"></path>
<path d="M18 23c0 1.105-0.895 2-2 2s-2-0.895-2-2c0-1.105 0.895-2 2-2s2 0.895 2 2z"></path>
</symbol>

  </defs>
</svg>