<svg xmlns="http://www.w3.org/2000/svg" aria-hidden="true" style="position:absolute;width:0;height:0;overflow:hidden">
  <defs>
    <symbol id="icon-3ellipse" viewBox="0 0 49 32">
      <path fill="#c7c9c6" d="M23.835 0C38.256 0 57.1 3.854 44.971 16.566 35.542 31.682 38.256 32 23.835 32H0V0h23.835z" style="fill:var(--color1, #c7c9c6)"/>
    </symbol>
    <symbol id="icon-4ellipse" viewBox="0 0 49 32">
      <path fill="#c7c9c6" d="M24.162 0C38.68 0 39.15 6.846 45.486 16.8 56.405 29.214 38.545 32 24.027 32H0V0h24.162z" style="fill:var(--color1, #c7c9c6)"/>
    </symbol>
    <symbol id="icon-5ellipse" viewBox="0 0 49 32">
      <path fill="#c7c9c6" d="M25.048 0c15.155 0 28.514 3.843 22.211 16.566C37.35 31.682 40.203 32 25.048 32H.001V0h25.048z" style="fill:var(--color1, #c7c9c6)"/>
    </symbol>
    <symbol id="icon-1ellipse" viewBox="0 0 49 32">
      <path fill="#c7c9c6" d="M27.142 0c16.422 0 21.715 14.777 21.715 16.784C48.857 20.235 43.564 32 27.142 32H0V0h27.142z" style="fill:var(--color1, #c7c9c6)"/>
    </symbol>
    <symbol id="icon-6ellipse" viewBox="0 0 49 32">
      <path fill="#c7c9c6" d="M26.238 0c15.526 0 14.69.818 21.466 10.745C52.555 19.921 41.475 32 25.949 32H-.001V0h26.238z" style="fill:var(--color1, #c7c9c6)"/>
    </symbol>
    <symbol id="icon-2ellipse" viewBox="0 0 49 32">
      <path fill="#c7c9c6" d="M26.238 0c15.526 0 14.69.818 21.466 10.745C52.555 19.921 41.475 32 25.949 32H-.001V0h26.238z" style="fill:var(--color1, #c7c9c6)"/>
    </symbol>
  </defs>
</svg>
