<svg xmlns="http://www.w3.org/2000/svg" aria-hidden="true" style="position:absolute;width:0;height:0;overflow:hidden">
  <defs>
    <symbol id="icon-3ellipse-" viewBox="0 0 43 32">
      <path fill="#c7c9c6" d="M20.892 0c12.64 0 29.157 3.854 18.526 16.566C31.153 31.682 33.532 32 20.892 32H0V0h20.892z" style="fill:var(--color1, #c7c9c6)"/>
    </symbol>
    <symbol id="icon-4ellipse" viewBox="0 0 43 32">
      <path fill="#c7c9c6" d="M21.178 0c12.725 0 13.137 6.846 18.691 16.8C49.44 29.214 33.786 32 21.061 32H.001V0h21.178z" style="fill:var(--color1, #c7c9c6)"/>
    </symbol>
    <symbol id="icon-5ellipse" viewBox="0 0 43 32">
      <path fill="#c7c9c6" d="M22.035 0c13.332 0 25.084 3.843 19.539 16.566C32.857 31.682 35.366 32 22.035 32H0V0h22.035z" style="fill:var(--color1, #c7c9c6)"/>
    </symbol>
    <symbol id="icon-1ellipse" viewBox="0 0 43 32">
      <path fill="#c7c9c6" d="M23.877 0C38.324 0 42.98 14.777 42.98 16.784 42.98 20.235 38.324 32 23.877 32H0V0h23.877z" style="fill:var(--color1, #c7c9c6)"/>
    </symbol>
    <symbol id="icon-6ellipse" viewBox="0 0 43 32">
      <path fill="#c7c9c6" d="M21.288 0c12.597 0 12.786 6.579 18.284 16.506C49.046 28.886 33.651 32 21.054 32H0V0h21.288z" style="fill:var(--color1, #c7c9c6)"/>
    </symbol>
    <symbol id="icon-2ellipse-" viewBox="0 0 43 32">
      <path fill="#c7c9c6" d="M22.914 0c13.559 0 12.829.818 18.747 10.745C45.898 19.921 36.222 32 22.663 32H.001V0h22.914z" style="fill:var(--color1, #c7c9c6)"/>
    </symbol>
  </defs>
</svg>
