<svg aria-hidden="true" style="position: absolute; width: 0; height: 0; overflow: hidden;" version="1.1" xmlns="http://www.w3.org/2000/svg" xmlns:xlink="http://www.w3.org/1999/xlink">
<defs>
<symbol id="icon-Icon-fb" viewBox="0 0 32 32">
<path d="M31.789 3.719v24.561c0 1.938-1.571 3.509-3.509 3.509h-6.579c-0.484 0-0.877-0.393-0.877-0.877v-10.526h4.105c0.417 0 0.776-0.293 0.86-0.702l0.632-3.158c0.026-0.128-0.006-0.26-0.087-0.362s-0.204-0.162-0.334-0.165h-5.175v-5.702c0-0.242 0.196-0.439 0.439-0.439h4.386c0.484 0 0.877-0.393 0.877-0.877v-2.632c0-0.484-0.393-0.877-0.877-0.877h-4.386c-2.907 0-5.263 2.356-5.263 5.263v5.263h-2.158c-0.484 0-0.877 0.393-0.877 0.877v2.632c0 0.485 0.393 0.877 0.877 0.877h2.158v10.526c0 0.484-0.393 0.877-0.877 0.877h-11.404c-1.938 0-3.509-1.571-3.509-3.509v-24.561c0-1.938 1.571-3.509 3.509-3.509h24.561c1.938 0 3.509 1.571 3.509 3.509z"></path>
</symbol>
<symbol id="icon-Icon-instagram" viewBox="0 0 32 32">
<path d="M23.018 0.211h-14.035c-4.845 0-8.772 3.927-8.772 8.772v14.035c0 4.844 3.927 8.772 8.772 8.772h14.035c4.844 0 8.772-3.927 8.772-8.772v-14.035c0-4.845-3.927-8.772-8.772-8.772zM28.719 23.018c-0.010 3.145-2.557 5.692-5.702 5.702h-14.035c-3.145-0.010-5.692-2.557-5.702-5.702v-14.035c0.010-3.145 2.557-5.692 5.702-5.702h14.035c3.145 0.010 5.692 2.557 5.702 5.702v14.035zM26.088 7.667c0 0.969-0.786 1.754-1.754 1.754s-1.754-0.785-1.754-1.754c0-0.969 0.786-1.754 1.754-1.754s1.754 0.785 1.754 1.754zM16 8.105c-4.36 0-7.895 3.535-7.895 7.895s3.535 7.895 7.895 7.895c4.36 0 7.895-3.535 7.895-7.895 0.005-2.095-0.826-4.106-2.307-5.588s-3.492-2.312-5.588-2.307zM16 20.825c-2.665 0-4.825-2.16-4.825-4.825s2.16-4.825 4.825-4.825c2.665 0 4.825 2.16 4.825 4.825s-2.16 4.825-4.825 4.825z"></path>
</symbol>
</defs>
</svg>
